<svg width="24" height="24" viewBox="0 0 24 24" fill="none" xmlns="http://www.w3.org/2000/svg">
<path d="M11.25 8.25L8.25 21" stroke="#B3B3B6" stroke-width="2" stroke-linecap="round" stroke-linejoin="round"/>
<path d="M5.76562 14.6813C5.1148 13.7081 4.70085 12.596 4.55691 11.4342C4.41296 10.2723 4.54302 9.09285 4.93667 7.99026C5.33031 6.88767 5.97662 5.89255 6.82385 5.08455C7.67108 4.27655 8.6957 3.67812 9.8157 3.33715C10.9357 2.99618 12.12 2.92215 13.2737 3.12097C14.4275 3.3198 15.5186 3.78597 16.4599 4.48216C17.4012 5.17836 18.1664 6.08524 18.6943 7.13022C19.2222 8.1752 19.4981 9.32925 19.5 10.5C19.5 14.6438 16.5 17.25 13.5 17.25C10.5 17.25 9.59999 15.2719 9.59999 15.2719" stroke="#B3B3B6" stroke-width="2" stroke-linecap="round" stroke-linejoin="round"/>
</svg>
