<svg width="48" height="48" viewBox="0 0 48 48" fill="none" xmlns="http://www.w3.org/2000/svg">
<path d="M28.4277 20.0525V34.08C28.4277 34.6637 28.2357 35.1101 27.8517 35.4192C27.4504 35.711 27.0664 35.857 26.6997 35.857C26.4864 35.8657 26.2737 35.8287 26.0759 35.7486C25.8781 35.6685 25.6996 35.547 25.5525 35.3923C25.2607 35.064 25.1148 34.6266 25.1148 34.08V33.385H22.9068V34.08C22.9068 34.6272 22.7612 35.0646 22.47 35.3923C22.1781 35.7027 21.7864 35.8576 21.2949 35.857C20.9301 35.857 20.5567 35.711 20.1746 35.4192C19.7733 35.1101 19.5727 34.6637 19.5727 34.08V20.0525H17.332V34.08C17.332 35.2832 17.7512 36.2579 18.5896 37.0042C19.4453 37.7338 20.3471 38.0982 21.2949 38.0976C21.8086 38.1036 22.3187 38.0107 22.7973 37.824C23.2516 37.6364 23.6615 37.3555 24.0002 36.9994C24.3455 37.3478 24.7536 37.6276 25.2031 37.824C25.6817 38.0107 26.1918 38.1036 26.7055 38.0976C27.6712 38.0976 28.573 37.7331 29.4108 37.0042C30.2485 36.2573 30.6677 35.2826 30.6684 34.08V20.0525H28.4277Z" fill="white"/>
<path d="M19.5727 18.6749V13.9248C19.5727 13.3411 19.7733 12.8931 20.1746 12.5808C20.5586 12.289 20.932 12.143 21.2949 12.143C21.7864 12.143 22.1781 12.2979 22.47 12.6077C22.7612 12.936 22.9068 13.3734 22.9068 13.92V31.9968H25.1205V13.9248C25.1205 13.3776 25.2664 12.9402 25.5583 12.6125C25.7054 12.4578 25.8838 12.3363 26.0817 12.2562C26.2795 12.1761 26.4922 12.1391 26.7055 12.1478C27.0703 12.1478 27.4543 12.2938 27.8575 12.5856C28.2415 12.8947 28.4335 13.3427 28.4335 13.9296V18.6797H30.6741V13.9248C30.6741 12.7216 30.2549 11.7469 29.4165 11.0006C28.5781 10.271 27.6764 9.90656 26.7112 9.9072C26.1975 9.90117 25.6874 9.99406 25.2088 10.1808C24.7577 10.3752 24.3476 10.6534 24.0002 11.0006C23.661 10.6462 23.2512 10.3669 22.7973 10.1808C22.3187 9.99406 21.8086 9.90117 21.2949 9.9072C20.3471 9.9072 19.4453 10.2717 18.5896 11.0006C17.7519 11.7475 17.3327 12.7222 17.332 13.9248V18.6749H19.5727Z" fill="white"/>
</svg>
