<svg width="52" height="35" viewBox="0 0 52 108" fill="none" xmlns="http://www.w3.org/2000/svg">
<path d="M9.21226 68.9677V15.78C9.21226 13.5669 9.94026 11.8743 11.3963 10.7022C12.9178 9.59562 14.3738 9.04234 15.7643 9.04234C16.573 9.00926 17.3794 9.14933 18.1296 9.45316C18.8797 9.757 19.5563 10.2176 20.1141 10.8041C21.2206 12.049 21.7739 13.7076 21.7739 15.78V18.4153H30.1459V15.78C30.1459 13.7052 30.698 12.0466 31.8021 10.8041C32.9087 9.62717 34.3938 9.03991 36.2575 9.04234C37.6407 9.04234 39.0566 9.59562 40.5053 10.7022C42.0269 11.8743 42.7876 13.5669 42.7876 15.78V68.9677H51.2834V15.78C51.2834 11.2179 49.6939 7.52204 46.515 4.69255C43.2705 1.92615 39.8514 0.544157 36.2575 0.546584C34.3096 0.523733 32.3756 0.875939 30.5609 1.58399C28.8382 2.2951 27.2843 3.36039 25.9999 4.71074C24.6908 3.38972 23.1432 2.32876 21.439 1.58399C19.6243 0.875939 17.6903 0.523733 15.7424 0.546584C12.0806 0.546584 8.66141 1.92858 5.48491 4.69255C2.3084 7.52447 0.71893 11.2203 0.716504 15.78V68.9677H9.21226Z" fill="white"/>
<path d="M42.7876 74.1911V92.2018C42.7876 94.4149 42.0269 96.1136 40.5053 97.2978C39.0493 98.4044 37.6334 98.9577 36.2575 98.9577C34.3938 98.9577 32.9087 98.3704 31.8021 97.1959C30.698 95.951 30.1459 94.2924 30.1459 92.22V23.6788H21.7521V92.2018C21.7521 94.2766 21.1988 95.9352 20.0922 97.1777C19.5345 97.7642 18.8579 98.2248 18.1077 98.5286C17.3575 98.8325 16.5511 98.9725 15.7424 98.9395C14.3592 98.9395 12.9032 98.3862 11.3744 97.2796C9.91843 96.1075 9.19043 94.4089 9.19043 92.1836V74.1729H0.694673V92.2018C0.694673 96.7639 2.28413 100.46 5.46306 103.289C8.642 106.056 12.0612 107.438 15.7206 107.435C17.6684 107.458 19.6025 107.106 21.4172 106.398C23.1277 105.661 24.6828 104.606 25.9999 103.289C27.2861 104.633 28.8399 105.692 30.5609 106.398C32.3756 107.106 34.3096 107.458 36.2575 107.435C39.8514 107.435 43.2705 106.053 46.515 103.289C49.6915 100.457 51.281 96.7615 51.2834 92.2018V74.1911H42.7876Z" fill="white"/>
</svg>
