<svg viewBox="0 0 521 383" fill="none" xmlns="http://www.w3.org/2000/svg">
<path d="M511.788 317.538L114.732 315.589C98.2109 315.508 85.602 310.011 76.9056 299.099C68.7007 287.7 64.6237 276.81 64.6747 266.43C64.4573 260.392 65.5326 254.377 67.8282 248.788C70.1239 243.199 73.5871 238.165 77.9859 234.023C87.3198 225.808 99.722 221.738 115.193 221.814L134.866 221.911L135.173 159.412L115.499 159.316C100.011 159.24 87.649 155.057 78.4143 146.769C69.6688 138.466 65.3394 127.357 65.4258 113.445C65.4764 103.119 69.6587 92.5688 77.9724 81.7944C86.778 70.4789 99.4415 64.8617 115.963 64.9428L513.018 66.8922L513.33 3.46974L116.274 1.52041C82.217 1.35321 54.5689 13.0834 33.3297 36.711C12.5591 60.8301 2.11698 86.3042 2.00339 113.133C1.76141 127.673 4.3198 142.124 9.53899 155.698C14.7845 168.583 22.6801 180.223 32.7137 189.86C22.804 199.585 14.827 211.099 9.20468 223.794C3.85246 237.315 1.15231 251.74 1.25151 266.282C1.11731 293.618 11.3088 319.194 31.8259 343.008C52.8503 366.825 80.3819 378.826 114.421 379.011L511.477 380.961L511.788 317.538Z"  fill="rgb(33,33,33)"/>
<path d="M552.012 67.0836L686.465 67.7437C702.987 67.8248 715.64 73.5662 724.424 84.9681C732.632 95.8779 736.71 106.469 736.66 116.74C736.591 130.653 732.153 141.718 723.344 149.936C714.011 158.133 701.609 162.193 686.138 162.117L174.465 159.605L174.158 222.267L685.694 224.778C701.183 224.854 713.545 229.045 722.779 237.351C727.137 241.536 730.551 246.604 732.792 252.216C735.032 257.827 736.048 263.852 735.772 269.888C735.721 280.214 731.537 291.063 723.221 302.435C714.418 313.261 701.71 318.634 685.098 318.552L550.645 317.892L550.333 381.314L684.923 381.975C718.98 382.142 746.628 370.412 767.867 346.785C788.635 323.155 799.077 297.681 799.193 270.362C799.435 255.822 796.877 241.371 791.658 227.798C786.219 215.002 778.402 203.354 768.62 193.473C778.699 183.921 786.661 172.361 791.993 159.539C797.345 146.018 800.045 131.593 799.946 117.051C800.078 90.2218 789.886 64.6463 769.372 40.3246C748.347 16.5076 720.816 4.5065 686.777 4.32127L552.323 3.66118L552.012 67.0836Z"  fill="rgb(33,33,33)"/>
</svg>
